<?xml version="1.0" ?><svg width="64px" height="64px" viewBox="0 0 64 64" style="enable-background:new 0 0 64 64;" version="1.1" xml:space="preserve" xmlns="http://www.w3.org/2000/svg" xmlns:xlink="http://www.w3.org/1999/xlink"><style type="text/css">
	.st0{fill:none;stroke:#EDEDED;stroke-width:0.25;stroke-miterlimit:10;}
	.st1{fill:none;stroke:#BDBDBD;stroke-width:0.25;stroke-miterlimit:10;}
	.st2{fill:none;stroke:#000000;stroke-width:2;stroke-miterlimit:10;}
	.st3{fill:#35C6F4;}
	.st4{fill:#EA386E;}
	.st5{fill:#7065AD;}
	.st6{fill:#FDBE57;}
	.st7{fill:#7BC89C;}
	.st8{fill:#FDD304;}
	.st9{fill:#27255F;}
	.st10{fill:#00AEEF;}
</style><g id="Layer_1"/><g id="Layer_2"><g><path d="M32,16.1c-7.9,0-14.2,6.4-14.3,14.3c0,5.6,3.2,10.4,8,12.8v4.8v2v5.3h1.6l1.8,5.3h5.9l0.2-0.7l1.5-4.6h1.6v-1v-4.3v-2    v-4.8c4.7-2.3,7.9-7.2,8-12.8C46.2,22.5,39.9,16.1,32,16.1z M27.7,53.2v-3.3h8.6v3.3H27.7z M33.5,58.5h-3l-1.1-3.3h5.2L33.5,58.5z     M36.9,41.6l-0.6,0.3v6.1H33v-9.7c1-0.4,1.8-1.4,1.8-2.6c0-1.5-1.2-2.8-2.8-2.8c-1.5,0-2.8,1.2-2.8,2.8c0,1.2,0.7,2.2,1.8,2.6v9.7    h-3.3v-6.1l-0.6-0.3c-4.3-1.9-7.4-6.2-7.3-11.2c0-3.4,1.4-6.4,3.6-8.7c2.2-2.2,5.3-3.6,8.7-3.6c3.4,0,6.4,1.4,8.7,3.6    c2.2,2.2,3.6,5.3,3.6,8.7C44.3,35.4,41.2,39.7,36.9,41.6z M32,36.4c-0.4,0-0.8-0.3-0.8-0.8c0-0.4,0.3-0.8,0.8-0.8    c0.4,0,0.8,0.3,0.8,0.8C32.8,36.1,32.4,36.4,32,36.4z"/><rect height="7" width="2" x="31" y="3.5"/><rect height="2" width="7" x="53" y="30.5"/><rect height="2" width="7" x="4" y="30.5"/><rect height="2" transform="matrix(0.7071 -0.7071 0.7071 0.7071 4.4244 39.0299)" width="7" x="45.8" y="13.2"/><rect height="7" transform="matrix(0.7071 -0.7071 0.7071 0.7071 -5.7304 14.542)" width="2" x="13.7" y="10.7"/></g></g></svg>