<?xml version='1.0' encoding='iso-8859-1'?>
<svg version="1.1" xmlns="http://www.w3.org/2000/svg" viewBox="0 0 470 470" xmlns:xlink="http://www.w3.org/1999/xlink" enable-background="new 0 0 470 470">
  <g>
    <path d="M435.317,115.545h-20.144c14.461-11.982,23.689-30.069,23.689-50.272C438.862,29.281,409.581,0,373.59,0   c-17.235,0-33.492,6.659-45.79,18.763l-56.549,55.896C265.346,60.448,251.324,50.426,235,50.426   c-16.323,0-30.346,10.022-36.25,24.234l-56.561-55.907C129.903,6.66,113.645,0,96.41,0C60.419,0,31.138,29.281,31.138,65.272   c0,20.203,9.228,38.29,23.689,50.272H34.683c-4.142,0-7.5,3.358-7.5,7.5v100c0,4.142,3.358,7.5,7.5,7.5h12.5V462.5   c0,4.142,3.358,7.5,7.5,7.5h360.635c4.143,0,7.5-3.358,7.5-7.5V230.545h12.5c4.143,0,7.5-3.358,7.5-7.5v-100   C442.817,118.903,439.46,115.545,435.317,115.545z M338.333,29.442C347.796,20.129,360.316,15,373.59,15   c27.721,0,50.272,22.552,50.272,50.272s-22.552,50.272-50.272,50.272h-99.351V92.797L338.333,29.442z M192.5,130.545h35v172.5   c0,4.142,3.358,7.5,7.5,7.5s7.5-3.358,7.5-7.5v-172.5h35v219.253l-38.641-23.185c-2.375-1.425-5.343-1.425-7.718,0L192.5,349.798   V130.545z M235,65.426c13.365,0,24.239,10.874,24.239,24.239v25.88h-48.478v-25.88C210.761,76.299,221.635,65.426,235,65.426z    M46.138,65.272C46.138,37.552,68.69,15,96.41,15c13.273,0,25.794,5.129,35.246,14.431l64.105,63.365v22.748H96.41   C68.69,115.545,46.138,92.993,46.138,65.272z M427.817,215.545H315c-4.143,0-7.5,3.358-7.5,7.5s3.357,7.5,7.5,7.5h92.817V455   H62.183V230.545H155c4.142,0,7.5-3.358,7.5-7.5s-3.358-7.5-7.5-7.5H42.183v-85H177.5v232.5c0,2.702,1.454,5.195,3.805,6.526   c2.352,1.332,5.237,1.295,7.554-0.095L235,341.792l46.142,27.685c1.187,0.712,2.521,1.069,3.858,1.069   c1.273,0,2.548-0.324,3.695-0.974c2.352-1.331,3.805-3.824,3.805-6.526v-232.5h135.317V215.545z"/>
    <path d="m96.41,30c-19.449,0-35.272,15.823-35.272,35.272 0,4.142 3.358,7.5 7.5,7.5s7.5-3.358 7.5-7.5c0-11.178 9.094-20.272 20.272-20.272 4.142,0 7.5-3.358 7.5-7.5s-3.358-7.5-7.5-7.5z"/>
  </g>
</svg>
